<mxfile host="app.diagrams.net" modified="2023-03-08T12:49:20.847Z" agent="5.0 (Windows NT 10.0; Win64; x64) AppleWebKit/537.36 (KHTML, like Gecko) Chrome/110.0.0.0 Safari/537.36 Edg/110.0.1587.63" etag="xNH42b-GuHMuilTo7gHF" version="21.0.2" type="github">
  <diagram name="第 1 页" id="kQbapwrNMIWuxCI1OBI0">
    <mxGraphModel dx="521" dy="571" grid="1" gridSize="10" guides="1" tooltips="1" connect="1" arrows="1" fold="1" page="1" pageScale="1" pageWidth="827" pageHeight="1169" math="0" shadow="0">
      <root>
        <mxCell id="0" />
        <mxCell id="1" parent="0" />
        <mxCell id="DPB3hcdQtm8mDDzPEyBC-16" style="edgeStyle=orthogonalEdgeStyle;rounded=0;orthogonalLoop=1;jettySize=auto;html=1;exitX=0.5;exitY=1;exitDx=0;exitDy=0;entryX=0.5;entryY=0;entryDx=0;entryDy=0;" edge="1" parent="1" source="DPB3hcdQtm8mDDzPEyBC-1" target="DPB3hcdQtm8mDDzPEyBC-4">
          <mxGeometry relative="1" as="geometry" />
        </mxCell>
        <mxCell id="DPB3hcdQtm8mDDzPEyBC-1" value="教务管理人员" style="ellipse;whiteSpace=wrap;html=1;aspect=fixed;" vertex="1" parent="1">
          <mxGeometry x="80" y="120" width="80" height="80" as="geometry" />
        </mxCell>
        <mxCell id="DPB3hcdQtm8mDDzPEyBC-17" style="edgeStyle=orthogonalEdgeStyle;rounded=0;orthogonalLoop=1;jettySize=auto;html=1;exitX=0.5;exitY=1;exitDx=0;exitDy=0;entryX=0.5;entryY=0;entryDx=0;entryDy=0;" edge="1" parent="1" source="DPB3hcdQtm8mDDzPEyBC-2" target="DPB3hcdQtm8mDDzPEyBC-5">
          <mxGeometry relative="1" as="geometry" />
        </mxCell>
        <mxCell id="DPB3hcdQtm8mDDzPEyBC-2" value="学生" style="ellipse;whiteSpace=wrap;html=1;aspect=fixed;" vertex="1" parent="1">
          <mxGeometry x="250" y="120" width="80" height="80" as="geometry" />
        </mxCell>
        <mxCell id="DPB3hcdQtm8mDDzPEyBC-18" style="edgeStyle=orthogonalEdgeStyle;rounded=0;orthogonalLoop=1;jettySize=auto;html=1;exitX=0.5;exitY=1;exitDx=0;exitDy=0;entryX=0.5;entryY=0;entryDx=0;entryDy=0;" edge="1" parent="1" source="DPB3hcdQtm8mDDzPEyBC-3" target="DPB3hcdQtm8mDDzPEyBC-6">
          <mxGeometry relative="1" as="geometry" />
        </mxCell>
        <mxCell id="DPB3hcdQtm8mDDzPEyBC-3" value="教师" style="ellipse;whiteSpace=wrap;html=1;aspect=fixed;" vertex="1" parent="1">
          <mxGeometry x="420" y="120" width="80" height="80" as="geometry" />
        </mxCell>
        <mxCell id="DPB3hcdQtm8mDDzPEyBC-19" style="edgeStyle=orthogonalEdgeStyle;rounded=0;orthogonalLoop=1;jettySize=auto;html=1;exitX=0.5;exitY=1;exitDx=0;exitDy=0;entryX=0.5;entryY=0;entryDx=0;entryDy=0;" edge="1" parent="1" source="DPB3hcdQtm8mDDzPEyBC-4" target="DPB3hcdQtm8mDDzPEyBC-7">
          <mxGeometry relative="1" as="geometry" />
        </mxCell>
        <mxCell id="DPB3hcdQtm8mDDzPEyBC-4" value="输入登录信息" style="rounded=1;whiteSpace=wrap;html=1;" vertex="1" parent="1">
          <mxGeometry x="60" y="240" width="120" height="60" as="geometry" />
        </mxCell>
        <mxCell id="DPB3hcdQtm8mDDzPEyBC-20" style="edgeStyle=orthogonalEdgeStyle;rounded=0;orthogonalLoop=1;jettySize=auto;html=1;exitX=0.5;exitY=1;exitDx=0;exitDy=0;" edge="1" parent="1" source="DPB3hcdQtm8mDDzPEyBC-5" target="DPB3hcdQtm8mDDzPEyBC-9">
          <mxGeometry relative="1" as="geometry" />
        </mxCell>
        <mxCell id="DPB3hcdQtm8mDDzPEyBC-5" value="输入登录信息" style="rounded=1;whiteSpace=wrap;html=1;" vertex="1" parent="1">
          <mxGeometry x="230" y="240" width="120" height="60" as="geometry" />
        </mxCell>
        <mxCell id="DPB3hcdQtm8mDDzPEyBC-21" style="edgeStyle=orthogonalEdgeStyle;rounded=0;orthogonalLoop=1;jettySize=auto;html=1;exitX=0.5;exitY=1;exitDx=0;exitDy=0;" edge="1" parent="1" source="DPB3hcdQtm8mDDzPEyBC-6" target="DPB3hcdQtm8mDDzPEyBC-10">
          <mxGeometry relative="1" as="geometry" />
        </mxCell>
        <mxCell id="DPB3hcdQtm8mDDzPEyBC-6" value="输入登录信息" style="rounded=1;whiteSpace=wrap;html=1;" vertex="1" parent="1">
          <mxGeometry x="400" y="240" width="120" height="60" as="geometry" />
        </mxCell>
        <mxCell id="DPB3hcdQtm8mDDzPEyBC-26" style="edgeStyle=orthogonalEdgeStyle;rounded=0;orthogonalLoop=1;jettySize=auto;html=1;exitX=0.5;exitY=1;exitDx=0;exitDy=0;entryX=0;entryY=0.5;entryDx=0;entryDy=0;" edge="1" parent="1" source="DPB3hcdQtm8mDDzPEyBC-7" target="DPB3hcdQtm8mDDzPEyBC-11">
          <mxGeometry relative="1" as="geometry" />
        </mxCell>
        <mxCell id="DPB3hcdQtm8mDDzPEyBC-7" value="验证登录信息" style="rounded=1;whiteSpace=wrap;html=1;" vertex="1" parent="1">
          <mxGeometry x="60" y="470" width="120" height="60" as="geometry" />
        </mxCell>
        <mxCell id="DPB3hcdQtm8mDDzPEyBC-22" style="edgeStyle=orthogonalEdgeStyle;rounded=0;orthogonalLoop=1;jettySize=auto;html=1;exitX=0;exitY=0.5;exitDx=0;exitDy=0;entryX=0;entryY=0.5;entryDx=0;entryDy=0;" edge="1" parent="1" source="DPB3hcdQtm8mDDzPEyBC-8" target="DPB3hcdQtm8mDDzPEyBC-7">
          <mxGeometry relative="1" as="geometry" />
        </mxCell>
        <mxCell id="DPB3hcdQtm8mDDzPEyBC-24" style="edgeStyle=orthogonalEdgeStyle;rounded=0;orthogonalLoop=1;jettySize=auto;html=1;exitX=0.5;exitY=1;exitDx=0;exitDy=0;entryX=0;entryY=0.5;entryDx=0;entryDy=0;" edge="1" parent="1" source="DPB3hcdQtm8mDDzPEyBC-8" target="DPB3hcdQtm8mDDzPEyBC-9">
          <mxGeometry relative="1" as="geometry" />
        </mxCell>
        <mxCell id="DPB3hcdQtm8mDDzPEyBC-25" style="edgeStyle=orthogonalEdgeStyle;rounded=0;orthogonalLoop=1;jettySize=auto;html=1;exitX=1;exitY=0.5;exitDx=0;exitDy=0;entryX=0.25;entryY=0;entryDx=0;entryDy=0;" edge="1" parent="1" source="DPB3hcdQtm8mDDzPEyBC-8" target="DPB3hcdQtm8mDDzPEyBC-10">
          <mxGeometry relative="1" as="geometry" />
        </mxCell>
        <mxCell id="DPB3hcdQtm8mDDzPEyBC-8" value="用户信息" style="rounded=1;whiteSpace=wrap;html=1;" vertex="1" parent="1">
          <mxGeometry x="140" y="350" width="120" height="60" as="geometry" />
        </mxCell>
        <mxCell id="DPB3hcdQtm8mDDzPEyBC-27" style="edgeStyle=orthogonalEdgeStyle;rounded=0;orthogonalLoop=1;jettySize=auto;html=1;exitX=0.5;exitY=1;exitDx=0;exitDy=0;entryX=0.5;entryY=0;entryDx=0;entryDy=0;" edge="1" parent="1" source="DPB3hcdQtm8mDDzPEyBC-9" target="DPB3hcdQtm8mDDzPEyBC-11">
          <mxGeometry relative="1" as="geometry" />
        </mxCell>
        <mxCell id="DPB3hcdQtm8mDDzPEyBC-9" value="验证登录信息" style="rounded=1;whiteSpace=wrap;html=1;" vertex="1" parent="1">
          <mxGeometry x="230" y="470" width="120" height="60" as="geometry" />
        </mxCell>
        <mxCell id="DPB3hcdQtm8mDDzPEyBC-28" style="edgeStyle=orthogonalEdgeStyle;rounded=0;orthogonalLoop=1;jettySize=auto;html=1;exitX=0.5;exitY=1;exitDx=0;exitDy=0;entryX=1;entryY=0.5;entryDx=0;entryDy=0;" edge="1" parent="1" source="DPB3hcdQtm8mDDzPEyBC-10" target="DPB3hcdQtm8mDDzPEyBC-11">
          <mxGeometry relative="1" as="geometry" />
        </mxCell>
        <mxCell id="DPB3hcdQtm8mDDzPEyBC-10" value="验证登录信息" style="rounded=1;whiteSpace=wrap;html=1;" vertex="1" parent="1">
          <mxGeometry x="400" y="470" width="120" height="60" as="geometry" />
        </mxCell>
        <mxCell id="DPB3hcdQtm8mDDzPEyBC-29" style="edgeStyle=orthogonalEdgeStyle;rounded=0;orthogonalLoop=1;jettySize=auto;html=1;exitX=0.25;exitY=1;exitDx=0;exitDy=0;entryX=0.5;entryY=0;entryDx=0;entryDy=0;" edge="1" parent="1" source="DPB3hcdQtm8mDDzPEyBC-11" target="DPB3hcdQtm8mDDzPEyBC-12">
          <mxGeometry relative="1" as="geometry" />
        </mxCell>
        <mxCell id="DPB3hcdQtm8mDDzPEyBC-30" style="edgeStyle=orthogonalEdgeStyle;rounded=0;orthogonalLoop=1;jettySize=auto;html=1;exitX=0.5;exitY=1;exitDx=0;exitDy=0;entryX=0.5;entryY=0;entryDx=0;entryDy=0;" edge="1" parent="1" source="DPB3hcdQtm8mDDzPEyBC-11" target="DPB3hcdQtm8mDDzPEyBC-13">
          <mxGeometry relative="1" as="geometry" />
        </mxCell>
        <mxCell id="DPB3hcdQtm8mDDzPEyBC-31" style="edgeStyle=orthogonalEdgeStyle;rounded=0;orthogonalLoop=1;jettySize=auto;html=1;exitX=0.75;exitY=1;exitDx=0;exitDy=0;entryX=0.5;entryY=0;entryDx=0;entryDy=0;" edge="1" parent="1" source="DPB3hcdQtm8mDDzPEyBC-11" target="DPB3hcdQtm8mDDzPEyBC-14">
          <mxGeometry relative="1" as="geometry" />
        </mxCell>
        <mxCell id="DPB3hcdQtm8mDDzPEyBC-11" value="显示验证信息" style="rounded=1;whiteSpace=wrap;html=1;" vertex="1" parent="1">
          <mxGeometry x="230" y="570" width="120" height="60" as="geometry" />
        </mxCell>
        <mxCell id="DPB3hcdQtm8mDDzPEyBC-33" style="edgeStyle=orthogonalEdgeStyle;rounded=0;orthogonalLoop=1;jettySize=auto;html=1;exitX=0;exitY=0.5;exitDx=0;exitDy=0;entryX=0.5;entryY=0;entryDx=0;entryDy=0;" edge="1" parent="1" source="DPB3hcdQtm8mDDzPEyBC-12" target="DPB3hcdQtm8mDDzPEyBC-8">
          <mxGeometry relative="1" as="geometry">
            <Array as="points">
              <mxPoint x="30" y="710" />
              <mxPoint x="30" y="330" />
              <mxPoint x="200" y="330" />
            </Array>
          </mxGeometry>
        </mxCell>
        <mxCell id="DPB3hcdQtm8mDDzPEyBC-12" value="修改密码" style="rounded=1;whiteSpace=wrap;html=1;" vertex="1" parent="1">
          <mxGeometry x="60" y="680" width="120" height="60" as="geometry" />
        </mxCell>
        <mxCell id="DPB3hcdQtm8mDDzPEyBC-32" style="edgeStyle=orthogonalEdgeStyle;rounded=0;orthogonalLoop=1;jettySize=auto;html=1;exitX=0.5;exitY=1;exitDx=0;exitDy=0;entryX=0.5;entryY=0;entryDx=0;entryDy=0;" edge="1" parent="1" source="DPB3hcdQtm8mDDzPEyBC-13" target="DPB3hcdQtm8mDDzPEyBC-15">
          <mxGeometry relative="1" as="geometry" />
        </mxCell>
        <mxCell id="DPB3hcdQtm8mDDzPEyBC-13" value="进入系统" style="rounded=1;whiteSpace=wrap;html=1;" vertex="1" parent="1">
          <mxGeometry x="230" y="680" width="120" height="60" as="geometry" />
        </mxCell>
        <mxCell id="DPB3hcdQtm8mDDzPEyBC-14" value="登陆失败，退出" style="rounded=1;whiteSpace=wrap;html=1;" vertex="1" parent="1">
          <mxGeometry x="400" y="680" width="120" height="60" as="geometry" />
        </mxCell>
        <mxCell id="DPB3hcdQtm8mDDzPEyBC-15" value="进行其他业务" style="rounded=1;whiteSpace=wrap;html=1;" vertex="1" parent="1">
          <mxGeometry x="230" y="790" width="120" height="60" as="geometry" />
        </mxCell>
      </root>
    </mxGraphModel>
  </diagram>
</mxfile>
